# xmcd
#
# Track frame offsets:
#	150
#	23873
#	33811
#	49078
#	56778
#	73214
#	99207
#	113034
#	130812
#	145497
#	163959
#	174234
#	195020
#	210159
#
# Disc length: 3032 seconds
#
# Revision: 1
# Processed by: cddbd v1.5.1PL0 Copyright (c) Steve Scherf et al.
# Submitted via: EasyCDDAExtractor 7.1.0.1
#
DISCID=b90bd60e
DTITLE=Splywowa 2001&2002 - Krzysztof Reder
DYEAR=2002
DGENRE=
TTITLE0=Splywowa 2002
TTITLE1=Moj dom murem podzielony
TTITLE2=Zostac Idolem
TTITLE3=Splywowa 2001
TTITLE4=Posplywowa 2001
TTITLE5=Aniu hej...
TTITLE6=Baw sie
TTITLE7=Posplywy (Posplywowa 2002)
TTITLE8=Krzysiu kontra Narcyz
TTITLE9=Big Brother
TTITLE10=Powiedz
TTITLE11=Szukaj mnie
TTITLE12=Usmiech
TTITLE13=Pozegnanie Liverpolu
EXTD=
EXTT0=
EXTT1=
EXTT2=
EXTT3=
EXTT4=
EXTT5=
EXTT6=
EXTT7=
EXTT8=
EXTT9=
EXTT10=
EXTT11=
EXTT12=
EXTT13=
PLAYORDER=
